<svg width="298" height="58" viewBox="0 0 298 58" fill="none" xmlns="http://www.w3.org/2000/svg">
<g filter="url(#filter0_d_152_131)">
<path d="M20.0594 46.577L3.99979 26.8584L22.6244 9.98258L38.684 29.7011L20.0594 46.577Z" fill="#AE3EC9" fill-opacity="0.5" shape-rendering="crispEdges"/>
<path d="M40.2768 47.8909L24.2172 28.1724L42.8418 11.2965L58.9014 31.0151L40.2768 47.8909Z" fill="url(#paint0_linear_152_131)" shape-rendering="crispEdges"/>
</g>
<g filter="url(#filter1_d_152_131)">
<path d="M70.3218 24.9368H65.1656V10.3913H70.3644C71.8275 10.3913 73.087 10.6825 74.1428 11.2649C75.1987 11.8425 76.0107 12.6735 76.5789 13.7578C77.1518 14.8421 77.4383 16.1394 77.4383 17.6498C77.4383 19.165 77.1518 20.4671 76.5789 21.5561C76.0107 22.6451 75.194 23.4808 74.1286 24.0632C73.068 24.6456 71.7991 24.9368 70.3218 24.9368ZM68.2409 22.3018H70.194C71.1031 22.3018 71.8677 22.1408 72.488 21.8189C73.113 21.4922 73.5818 20.9879 73.8943 20.3061C74.2115 19.6195 74.3701 18.7341 74.3701 17.6498C74.3701 16.575 74.2115 15.6967 73.8943 15.0149C73.5818 14.3331 73.1154 13.8312 72.4951 13.5092C71.8749 13.1872 71.1102 13.0263 70.2011 13.0263H68.2409V22.3018ZM82.7916 10.3913V24.9368H79.7164V10.3913H82.7916ZM94.9667 15.093C94.8673 14.7474 94.7276 14.442 94.5477 14.1768C94.3678 13.9069 94.1476 13.6797 93.8872 13.495C93.6315 13.3056 93.3379 13.1612 93.0065 13.0618C92.6798 12.9623 92.3176 12.9126 91.9198 12.9126C91.1765 12.9126 90.5231 13.0973 89.9596 13.4666C89.4009 13.8359 88.9653 14.3733 88.6528 15.0788C88.3403 15.7796 88.184 16.6366 88.184 17.6498C88.184 18.6631 88.3379 19.5248 88.6457 20.2351C88.9535 20.9453 89.3891 21.4874 89.9525 21.8615C90.516 22.2308 91.1812 22.4155 91.9482 22.4155C92.6443 22.4155 93.2385 22.2924 93.7309 22.0461C94.2281 21.7952 94.6069 21.4424 94.8673 20.9879C95.1324 20.5334 95.265 19.996 95.265 19.3757L95.89 19.468H92.14V17.1527H98.2267V18.9851C98.2267 20.2635 97.9568 21.362 97.417 22.2805C96.8772 23.1943 96.1338 23.8998 95.1869 24.397C94.2399 24.8894 93.1556 25.1356 91.934 25.1356C90.5704 25.1356 89.3725 24.835 88.3403 24.2336C87.3081 23.6276 86.5032 22.7682 85.9255 21.6555C85.3526 20.5381 85.0661 19.2123 85.0661 17.6782C85.0661 16.4993 85.2366 15.4481 85.5775 14.5248C85.9231 13.5968 86.4061 12.8108 87.0264 12.1669C87.6466 11.5229 88.3687 11.0329 89.1926 10.6967C90.0164 10.3605 90.9089 10.1924 91.8701 10.1924C92.694 10.1924 93.461 10.3132 94.1713 10.5547C94.8815 10.7914 95.5112 11.1276 96.0605 11.5632C96.6144 11.9988 97.0666 12.5173 97.417 13.1186C97.7674 13.7152 97.9923 14.3733 98.0917 15.093H94.9667ZM103.612 10.3913V24.9368H100.537V10.3913H103.612ZM105.588 12.9268V10.3913H117.534V12.9268H113.081V24.9368H110.041V12.9268H105.588ZM120.231 24.9368H116.936L121.957 10.3913H125.92L130.934 24.9368H127.639L123.995 13.7152H123.882L120.231 24.9368ZM120.025 19.2194H127.809V21.62H120.025V19.2194ZM132.685 24.9368V10.3913H135.76V22.4013H141.996V24.9368H132.685ZM148.662 24.9368V10.3913H154.4C155.504 10.3913 156.443 10.602 157.22 11.0234C157.996 11.4401 158.588 12.0201 158.995 12.7635C159.407 13.5021 159.613 14.3544 159.613 15.3203C159.613 16.2862 159.405 17.1385 158.988 17.8771C158.572 18.6157 157.968 19.191 157.177 19.603C156.391 20.0149 155.44 20.2209 154.322 20.2209H150.665V17.7564H153.825C154.417 17.7564 154.905 17.6546 155.288 17.451C155.676 17.2426 155.965 16.9562 156.155 16.5916C156.349 16.2223 156.446 15.7985 156.446 15.3203C156.446 14.8373 156.349 14.4159 156.155 14.0561C155.965 13.6915 155.676 13.4098 155.288 13.2109C154.9 13.0073 154.407 12.9055 153.811 12.9055H151.737V24.9368H148.662ZM161.611 24.9368V10.3913H167.35C168.448 10.3913 169.386 10.5878 170.162 10.9808C170.943 11.3691 171.537 11.9207 171.945 12.6356C172.357 13.3459 172.563 14.1816 172.563 15.1427C172.563 16.1086 172.354 16.9396 171.938 17.6356C171.521 18.3269 170.917 18.8572 170.127 19.2265C169.341 19.5959 168.389 19.7805 167.271 19.7805H163.429V17.3089H166.774C167.361 17.3089 167.849 17.2284 168.237 17.0674C168.626 16.9065 168.914 16.665 169.104 16.343C169.298 16.021 169.395 15.621 169.395 15.1427C169.395 14.6598 169.298 14.2526 169.104 13.9211C168.914 13.5897 168.623 13.3388 168.23 13.1683C167.842 12.9931 167.352 12.9055 166.76 12.9055H164.686V24.9368H161.611ZM169.466 18.3174L173.081 24.9368H169.686L166.149 18.3174H169.466ZM188.102 17.664C188.102 19.2502 187.802 20.5996 187.2 21.7123C186.604 22.825 185.789 23.6749 184.757 24.2621C183.73 24.8444 182.574 25.1356 181.291 25.1356C179.999 25.1356 178.839 24.8421 177.811 24.2549C176.784 23.6678 175.972 22.8179 175.375 21.7052C174.778 20.5925 174.48 19.2455 174.48 17.664C174.48 16.0779 174.778 14.7284 175.375 13.6157C175.972 12.5031 176.784 11.6555 177.811 11.0731C178.839 10.486 179.999 10.1924 181.291 10.1924C182.574 10.1924 183.73 10.486 184.757 11.0731C185.789 11.6555 186.604 12.5031 187.2 13.6157C187.802 14.7284 188.102 16.0779 188.102 17.664ZM184.984 17.664C184.984 16.6366 184.831 15.7701 184.523 15.0646C184.22 14.3591 183.791 13.8241 183.237 13.4595C182.683 13.0949 182.035 12.9126 181.291 12.9126C180.548 12.9126 179.899 13.0949 179.345 13.4595C178.791 13.8241 178.36 14.3591 178.053 15.0646C177.75 15.7701 177.598 16.6366 177.598 17.664C177.598 18.6915 177.75 19.558 178.053 20.2635C178.36 20.969 178.791 21.504 179.345 21.8686C179.899 22.2332 180.548 22.4155 181.291 22.4155C182.035 22.4155 182.683 22.2332 183.237 21.8686C183.791 21.504 184.22 20.969 184.523 20.2635C184.831 19.558 184.984 18.6915 184.984 17.664ZM198.271 14.5746C198.214 14.0016 197.97 13.5566 197.54 13.2393C197.109 12.9221 196.524 12.7635 195.785 12.7635C195.283 12.7635 194.86 12.8345 194.514 12.9765C194.168 13.1139 193.903 13.3056 193.718 13.5518C193.539 13.798 193.449 14.0774 193.449 14.3899C193.439 14.6503 193.494 14.8776 193.612 15.0717C193.735 15.2658 193.903 15.4339 194.116 15.576C194.329 15.7133 194.575 15.834 194.855 15.9382C195.134 16.0376 195.432 16.1228 195.75 16.1939L197.057 16.5064C197.691 16.6484 198.273 16.8378 198.804 17.0746C199.334 17.3113 199.793 17.6025 200.182 17.9481C200.57 18.2938 200.87 18.701 201.084 19.1697C201.301 19.6385 201.413 20.1759 201.417 20.7819C201.413 21.6721 201.185 22.4439 200.736 23.0973C200.29 23.746 199.647 24.2502 198.804 24.6101C197.966 24.9652 196.955 25.1427 195.771 25.1427C194.597 25.1427 193.574 24.9628 192.703 24.603C191.836 24.2431 191.159 23.7104 190.672 23.0049C190.189 22.2947 189.935 21.4164 189.912 20.37H192.888C192.921 20.8577 193.06 21.2649 193.307 21.5916C193.557 21.9136 193.891 22.1574 194.308 22.3231C194.729 22.4841 195.205 22.5646 195.736 22.5646C196.256 22.5646 196.709 22.4889 197.092 22.3373C197.48 22.1858 197.781 21.9751 197.994 21.7052C198.207 21.4353 198.314 21.1252 198.314 20.7748C198.314 20.4481 198.217 20.1735 198.022 19.951C197.833 19.7284 197.554 19.539 197.184 19.3828C196.82 19.2265 196.372 19.0845 195.842 18.9567L194.258 18.5589C193.032 18.2606 192.064 17.7942 191.353 17.1598C190.643 16.5253 190.29 15.6707 190.295 14.5959C190.29 13.7152 190.525 12.9458 190.998 12.2876C191.477 11.6295 192.132 11.1157 192.966 10.7464C193.799 10.3771 194.746 10.1924 195.807 10.1924C196.886 10.1924 197.828 10.3771 198.633 10.7464C199.443 11.1157 200.073 11.6295 200.522 12.2876C200.972 12.9458 201.204 13.7081 201.218 14.5746H198.271ZM203.486 24.9368V10.3913H209.225C210.328 10.3913 211.268 10.602 212.044 11.0234C212.821 11.4401 213.412 12.0201 213.82 12.7635C214.232 13.5021 214.438 14.3544 214.438 15.3203C214.438 16.2862 214.229 17.1385 213.813 17.8771C213.396 18.6157 212.792 19.191 212.002 19.603C211.216 20.0149 210.264 20.2209 209.146 20.2209H205.489V17.7564H208.649C209.241 17.7564 209.729 17.6546 210.112 17.451C210.501 17.2426 210.789 16.9562 210.979 16.5916C211.173 16.2223 211.27 15.7985 211.27 15.3203C211.27 14.8373 211.173 14.4159 210.979 14.0561C210.789 13.6915 210.501 13.4098 210.112 13.2109C209.724 13.0073 209.232 12.9055 208.635 12.9055H206.561V24.9368H203.486ZM216.435 24.9368V10.3913H226.236V12.9268H219.51V16.3927H225.732V18.9282H219.51V22.4013H226.265V24.9368H216.435ZM241.515 15.4836H238.404C238.347 15.0812 238.231 14.7237 238.056 14.4112C237.881 14.094 237.656 13.8241 237.381 13.6015C237.107 13.379 236.79 13.2085 236.43 13.0902C236.075 12.9718 235.689 12.9126 235.272 12.9126C234.519 12.9126 233.863 13.0996 233.305 13.4737C232.746 13.843 232.313 14.3828 232.005 15.093C231.697 15.7985 231.543 16.6555 231.543 17.664C231.543 18.701 231.697 19.5722 232.005 20.2777C232.318 20.9832 232.753 21.5158 233.312 21.8757C233.871 22.2355 234.517 22.4155 235.251 22.4155C235.663 22.4155 236.044 22.361 236.394 22.2521C236.749 22.1432 237.064 21.9846 237.339 21.7763C237.613 21.5632 237.841 21.3051 238.021 21.0021C238.205 20.6991 238.333 20.3534 238.404 19.9652L241.515 19.9794C241.435 20.647 241.233 21.2909 240.911 21.9112C240.594 22.5267 240.166 23.0783 239.626 23.566C239.091 24.049 238.452 24.4325 237.708 24.7166C236.97 24.996 236.134 25.1356 235.201 25.1356C233.904 25.1356 232.744 24.8421 231.721 24.2549C230.703 23.6678 229.898 22.8179 229.306 21.7052C228.719 20.5925 228.426 19.2455 228.426 17.664C228.426 16.0779 228.724 14.7284 229.32 13.6157C229.917 12.5031 230.727 11.6555 231.749 11.0731C232.772 10.486 233.923 10.1924 235.201 10.1924C236.044 10.1924 236.825 10.3108 237.545 10.5476C238.269 10.7843 238.911 11.1299 239.47 11.5845C240.028 12.0343 240.483 12.5859 240.833 13.2393C241.188 13.8927 241.416 14.6408 241.515 15.4836ZM243.166 12.9268V10.3913H255.112V12.9268H250.659V24.9368H247.619V12.9268H243.166Z" fill="#3F3D56"/>
<path d="M65.1656 32.3913H68.9582L72.9639 42.164H73.1343L77.14 32.3913H80.9326V46.9368H77.9497V37.4694H77.8289L74.0647 46.8657H72.0335L68.2693 37.4339H68.1485V46.9368H65.1656V32.3913ZM85.9735 46.9368H82.678L87.6993 32.3913H91.6624L96.6766 46.9368H93.3811L89.7377 35.7152H89.624L85.9735 46.9368ZM85.7675 41.2194H93.5516V43.62H85.7675V41.2194ZM110.593 32.3913V46.9368H107.937L101.609 37.7819H101.503V46.9368H98.4273V32.3913H101.126L107.405 41.539H107.532V32.3913H110.593ZM115.641 46.9368H112.346L117.367 32.3913H121.33L126.345 46.9368H123.049L119.406 35.7152H119.292L115.641 46.9368ZM115.435 41.2194H123.22V43.62H115.435V41.2194ZM137.057 37.093C136.957 36.7474 136.817 36.442 136.638 36.1768C136.458 35.9069 136.237 35.6797 135.977 35.495C135.721 35.3056 135.428 35.1612 135.096 35.0618C134.77 34.9623 134.407 34.9126 134.01 34.9126C133.266 34.9126 132.613 35.0973 132.049 35.4666C131.491 35.8359 131.055 36.3733 130.743 37.0788C130.43 37.7796 130.274 38.6366 130.274 39.6498C130.274 40.6631 130.428 41.5248 130.736 42.2351C131.043 42.9453 131.479 43.4874 132.042 43.8615C132.606 44.2308 133.271 44.4155 134.038 44.4155C134.734 44.4155 135.328 44.2924 135.821 44.0461C136.318 43.7952 136.697 43.4424 136.957 42.9879C137.222 42.5334 137.355 41.996 137.355 41.3757L137.98 41.468H134.23V39.1527H140.316V40.9851C140.316 42.2635 140.047 43.362 139.507 44.2805C138.967 45.1943 138.224 45.8998 137.277 46.397C136.33 46.8894 135.245 47.1356 134.024 47.1356C132.66 47.1356 131.462 46.835 130.43 46.2336C129.398 45.6276 128.593 44.7682 128.015 43.6555C127.442 42.5381 127.156 41.2123 127.156 39.6782C127.156 38.4993 127.326 37.4481 127.667 36.5248C128.013 35.5968 128.496 34.8108 129.116 34.1669C129.736 33.5229 130.459 33.0329 131.282 32.6967C132.106 32.3605 132.999 32.1924 133.96 32.1924C134.784 32.1924 135.551 32.3132 136.261 32.5547C136.971 32.7914 137.601 33.1276 138.15 33.5632C138.704 33.9988 139.156 34.5173 139.507 35.1186C139.857 35.7152 140.082 36.3733 140.182 37.093H137.057ZM142.627 46.9368V32.3913H152.428V34.9268H145.702V38.3927H151.923V40.9282H145.702V44.4013H152.456V46.9368H142.627ZM154.873 32.3913H158.665L162.671 42.164H162.841L166.847 32.3913H170.64V46.9368H167.657V37.4694H167.536L163.772 46.8657H161.741L157.976 37.4339H157.856V46.9368H154.873V32.3913ZM173.173 46.9368V32.3913H182.975V34.9268H176.249V38.3927H182.47V40.9282H176.249V44.4013H183.003V46.9368H173.173ZM197.586 32.3913V46.9368H194.929L188.601 37.7819H188.495V46.9368H185.419V32.3913H188.118L194.397 41.539H194.525V32.3913H197.586ZM199.573 34.9268V32.3913H211.519V34.9268H207.065V46.9368H204.026V34.9268H199.573Z" fill="#AE3EC9"/>
</g>
<defs>
<filter id="filter0_d_152_131" x="0" y="9.9826" width="62.9014" height="45.9083" filterUnits="userSpaceOnUse" color-interpolation-filters="sRGB">
<feFlood flood-opacity="0" result="BackgroundImageFix"/>
<feColorMatrix in="SourceAlpha" type="matrix" values="0 0 0 0 0 0 0 0 0 0 0 0 0 0 0 0 0 0 127 0" result="hardAlpha"/>
<feOffset dy="4"/>
<feGaussianBlur stdDeviation="2"/>
<feComposite in2="hardAlpha" operator="out"/>
<feColorMatrix type="matrix" values="0 0 0 0 0 0 0 0 0 0 0 0 0 0 0 0 0 0 0.25 0"/>
<feBlend mode="normal" in2="BackgroundImageFix" result="effect1_dropShadow_152_131"/>
<feBlend mode="normal" in="SourceGraphic" in2="effect1_dropShadow_152_131" result="shape"/>
</filter>
<filter id="filter1_d_152_131" x="61.1655" y="10.1924" width="197.947" height="44.9432" filterUnits="userSpaceOnUse" color-interpolation-filters="sRGB">
<feFlood flood-opacity="0" result="BackgroundImageFix"/>
<feColorMatrix in="SourceAlpha" type="matrix" values="0 0 0 0 0 0 0 0 0 0 0 0 0 0 0 0 0 0 127 0" result="hardAlpha"/>
<feOffset dy="4"/>
<feGaussianBlur stdDeviation="2"/>
<feComposite in2="hardAlpha" operator="out"/>
<feColorMatrix type="matrix" values="0 0 0 0 0 0 0 0 0 0 0 0 0 0 0 0 0 0 0.25 0"/>
<feBlend mode="normal" in2="BackgroundImageFix" result="effect1_dropShadow_152_131"/>
<feBlend mode="normal" in="SourceGraphic" in2="effect1_dropShadow_152_131" result="shape"/>
</filter>
<linearGradient id="paint0_linear_152_131" x1="16.6298" y1="42.366" x2="47.6018" y2="17.1411" gradientUnits="userSpaceOnUse">
<stop stop-color="#AE3EC9"/>
<stop offset="1" stop-color="#AE3EC9"/>
</linearGradient>
</defs>
</svg>
